<svg width="28" height="33" viewBox="0 0 28 33" fill="none" xmlns="http://www.w3.org/2000/svg">
<path fill-rule="evenodd" clip-rule="evenodd" d="M21.85 21.025C20.0833 23.6083 17.4667 26.3 14 29.1C10.5333 26.3 7.91667 23.6083 6.15 21.025C4.38333 18.4417 3.5 16.0333 3.5 13.8C3.5 11.8333 3.85833 10.1667 4.575 8.8C5.29167 7.43333 6.175 6.31667 7.225 5.45C8.275 4.58333 9.41667 3.95833 10.65 3.575C11.8833 3.19167 13 3 14 3C15 3 16.1167 3.19167 17.35 3.575C18.5833 3.95833 19.725 4.58333 20.775 5.45C21.825 6.31667 22.7083 7.43333 23.425 8.8C24.1417 10.1667 24.5 11.8333 24.5 13.8C24.5 16.0333 23.6167 18.4417 21.85 21.025ZM3.825 23.05C6.04167 26.1833 9.43333 29.4667 14 32.9C18.5667 29.4667 21.9583 26.1833 24.175 23.05C26.3917 19.9167 27.5 16.8333 27.5 13.8C27.5 11.5333 27.0917 9.54167 26.275 7.825C25.4583 6.10833 24.4 4.66667 23.1 3.5C21.8 2.33333 20.35 1.45833 18.75 0.875C17.15 0.291667 15.5667 0 14 0C12.4333 0 10.85 0.291667 9.25 0.875C7.65 1.45833 6.2 2.33333 4.9 3.5C3.6 4.66667 2.54167 6.10833 1.725 7.825C0.908334 9.54167 0.5 11.5333 0.5 13.8C0.5 16.8333 1.60833 19.9167 3.825 23.05Z" fill="black"/>
<path fill-rule="evenodd" clip-rule="evenodd" d="M14 29.1C17.4667 26.3 20.0833 23.6083 21.85 21.025C23.6167 18.4417 24.5 16.0333 24.5 13.8C24.5 11.8333 24.1417 10.1667 23.425 8.8C22.7083 7.43333 21.825 6.31667 20.775 5.45C19.725 4.58333 18.5833 3.95833 17.35 3.575C16.1167 3.19167 15 3 14 3C13 3 11.8833 3.19167 10.65 3.575C9.41667 3.95833 8.275 4.58333 7.225 5.45C6.175 6.31667 5.29167 7.43333 4.575 8.8C3.85833 10.1667 3.5 11.8333 3.5 13.8C3.5 16.0333 4.38333 18.4417 6.15 21.025C7.91667 23.6083 10.5333 26.3 14 29.1ZM16.475 15.975C15.7917 16.6583 14.9667 17 14 17C13.0333 17 12.2083 16.6583 11.525 15.975C10.8417 15.2917 10.5 14.4667 10.5 13.5C10.5 12.5333 10.8417 11.7083 11.525 11.025C12.2083 10.3417 13.0333 10 14 10C14.9667 10 15.7917 10.3417 16.475 11.025C17.1583 11.7083 17.5 12.5333 17.5 13.5C17.5 14.4667 17.1583 15.2917 16.475 15.975Z" fill="#2781CA"/>
</svg>
