<svg width="28" height="34" viewBox="0 0 28 34" fill="none" xmlns="http://www.w3.org/2000/svg">
<path fill-rule="evenodd" clip-rule="evenodd" d="M21.85 21.925C20.0833 24.5084 17.4667 27.2 14 30C10.5333 27.2 7.91667 24.5084 6.15 21.925C4.38333 19.3417 3.5 16.9334 3.5 14.7C3.5 12.7334 3.85833 11.0667 4.575 9.70002C5.29167 8.33336 6.175 7.21669 7.225 6.35002C8.275 5.48336 9.41667 4.85836 10.65 4.47502C11.8833 4.09169 13 3.90002 14 3.90002C15 3.90002 16.1167 4.09169 17.35 4.47502C18.5833 4.85836 19.725 5.48336 20.775 6.35002C21.825 7.21669 22.7083 8.33336 23.425 9.70002C24.1417 11.0667 24.5 12.7334 24.5 14.7C24.5 16.9334 23.6167 19.3417 21.85 21.925ZM3.825 23.95C6.04167 27.0834 9.43333 30.3667 14 33.8C18.5667 30.3667 21.9583 27.0834 24.175 23.95C26.3917 20.8167 27.5 17.7334 27.5 14.7C27.5 12.4334 27.0917 10.4417 26.275 8.72502C25.4583 7.00836 24.4 5.56669 23.1 4.40002C21.8 3.23336 20.35 2.35836 18.75 1.77502C17.15 1.19169 15.5667 0.900024 14 0.900024C12.4333 0.900024 10.85 1.19169 9.25 1.77502C7.65 2.35836 6.2 3.23336 4.9 4.40002C3.6 5.56669 2.54167 7.00836 1.725 8.72502C0.908334 10.4417 0.5 12.4334 0.5 14.7C0.5 17.7334 1.60833 20.8167 3.825 23.95Z" fill="black"/>
<path fill-rule="evenodd" clip-rule="evenodd" d="M14 30C17.4667 27.2 20.0833 24.5084 21.85 21.925C23.6167 19.3417 24.5 16.9334 24.5 14.7C24.5 12.7334 24.1417 11.0667 23.425 9.70002C22.7083 8.33336 21.825 7.21669 20.775 6.35002C19.725 5.48336 18.5833 4.85836 17.35 4.47502C16.1167 4.09169 15 3.90002 14 3.90002C13 3.90002 11.8833 4.09169 10.65 4.47502C9.41667 4.85836 8.275 5.48336 7.225 6.35002C6.175 7.21669 5.29167 8.33336 4.575 9.70002C3.85833 11.0667 3.5 12.7334 3.5 14.7C3.5 16.9334 4.38333 19.3417 6.15 21.925C7.91667 24.5084 10.5333 27.2 14 30ZM16.475 16.875C15.7917 17.5584 14.9667 17.9 14 17.9C13.0333 17.9 12.2083 17.5584 11.525 16.875C10.8417 16.1917 10.5 15.3667 10.5 14.4C10.5 13.4334 10.8417 12.6084 11.525 11.925C12.2083 11.2417 13.0333 10.9 14 10.9C14.9667 10.9 15.7917 11.2417 16.475 11.925C17.1583 12.6084 17.5 13.4334 17.5 14.4C17.5 15.3667 17.1583 16.1917 16.475 16.875Z" fill="#CA2727"/>
</svg>
